<svg width="60" height="60" viewBox="0 0 60 60" fill="none" xmlns="http://www.w3.org/2000/svg">
<g clip-path="url(#clip0_164_18)">
<path d="M60 30C60 13.4315 46.5685 0 30 0C13.4315 0 0 13.4315 0 30C0 46.5685 13.4315 60 30 60C46.5685 60 60 46.5685 60 30Z" fill="#1D7952"/>
<path d="M29.2044 19.0704C29.3109 19.024 29.4258 19 29.5419 19C29.6581 19 29.773 19.024 29.8794 19.0704C34.0397 20.8889 38.0082 23.1181 41.7257 25.7248C41.8567 25.8167 41.9589 25.9439 42.0203 26.0917C42.0817 26.2394 42.0999 26.4016 42.0727 26.5593C42.0454 26.717 41.9739 26.8636 41.8664 26.9822C41.759 27.1008 41.62 27.1864 41.4658 27.2289C37.6064 28.2949 33.8719 29.7703 30.326 31.6299L30.3227 31.6322L29.9402 31.8347C29.8178 31.9001 29.6812 31.9343 29.5425 31.9343C29.4038 31.9343 29.2672 31.9001 29.1448 31.8347C27.6246 31.0222 26.0678 30.2801 24.4794 29.6106V29.3586C24.4794 29.2112 24.5548 29.0796 24.6729 29.0087C26.371 27.9797 28.1179 27.0336 29.9075 26.1737C30.1092 26.0767 30.2642 25.9036 30.3382 25.6924C30.4123 25.4812 30.3994 25.2493 30.3024 25.0476C30.2055 24.8459 30.0323 24.691 29.8211 24.6169C29.61 24.5428 29.378 24.5557 29.1763 24.6527C27.3378 25.5361 25.5432 26.5082 23.7988 27.5653C23.5506 27.7159 23.3365 27.9165 23.1701 28.1543C23.0038 28.3922 22.8888 28.6621 22.8324 28.9468C21.1238 28.2894 19.3839 27.716 17.6192 27.2289C17.4649 27.1864 17.326 27.1008 17.2185 26.9822C17.1111 26.8636 17.0396 26.717 17.0123 26.5593C16.9851 26.4016 17.0032 26.2394 17.0647 26.0917C17.1261 25.9439 17.2283 25.8167 17.3593 25.7248C21.0765 23.1182 25.0445 20.889 29.2044 19.0704Z" fill="white"/>
<path d="M30.7345 33.3223C33.4978 31.846 36.3832 30.6107 39.3588 29.6301C39.5095 31.2208 39.6063 32.8284 39.6456 34.4507C39.6498 34.6204 39.6026 34.7875 39.5103 34.93C39.4179 35.0725 39.2848 35.1838 39.1281 35.2494C35.9391 36.5814 32.8856 38.2172 30.01 40.1342C29.8714 40.2266 29.7086 40.2759 29.542 40.2759C29.3754 40.2759 29.2126 40.2266 29.074 40.1342C26.1987 38.2172 23.1457 36.5815 19.957 35.2494C19.8002 35.184 19.6668 35.0728 19.5742 34.9302C19.4817 34.7877 19.4343 34.6206 19.4384 34.4507C19.4778 32.8284 19.5745 31.2219 19.7253 29.6289C20.7584 29.9695 21.7811 30.3409 22.792 30.7427V32.1714C22.5489 32.3115 22.3446 32.5099 22.1975 32.7488C22.0504 32.9877 21.9652 33.2595 21.9496 33.5396C21.9339 33.8197 21.9884 34.0992 22.108 34.353C22.2276 34.6068 22.4085 34.8267 22.6345 34.9929C22.5333 35.4204 22.3848 35.8401 22.1879 36.2417C22.6964 36.4813 23.2015 36.7299 23.7021 36.9853C23.9844 36.4109 24.1927 35.8031 24.322 35.1763C24.6065 35.0498 24.8505 34.8471 25.0269 34.5905C25.2033 34.334 25.3053 34.0336 25.3216 33.7227C25.3379 33.4118 25.2679 33.1024 25.1193 32.8288C24.9706 32.5553 24.7492 32.3281 24.4795 32.1726V31.4469C25.7937 32.0214 27.0847 32.6474 28.3495 33.3234C28.7164 33.5194 29.126 33.6219 29.542 33.6219C29.958 33.6219 30.3676 33.5194 30.7345 33.3234V33.3223Z" fill="white"/>
<path d="M21.0617 37.8095C21.5342 37.3381 21.9088 36.8082 22.1867 36.2412C22.6963 36.4809 23.2014 36.7295 23.702 36.9849C23.3339 37.7325 22.8451 38.4144 22.2553 39.0031C22.1781 39.086 22.0849 39.1525 21.9814 39.1986C21.8779 39.2447 21.7662 39.2695 21.6529 39.2715C21.5396 39.2735 21.4271 39.2527 21.322 39.2102C21.2169 39.1678 21.1215 39.1046 21.0414 39.0245C20.9613 38.9444 20.8981 38.849 20.8557 38.7439C20.8132 38.6388 20.7924 38.5263 20.7944 38.413C20.7964 38.2997 20.8212 38.188 20.8673 38.0845C20.9134 37.981 20.9799 37.8879 21.0628 37.8106L21.0617 37.8095Z" fill="white"/>
</g>
<defs>
<clipPath id="clip0_164_18">
<rect width="60" height="60" fill="white"/>
</clipPath>
</defs>
</svg>
