<svg width="28" height="28" viewBox="0 0 28 28" fill="none" xmlns="http://www.w3.org/2000/svg">
<path fill-rule="evenodd" clip-rule="evenodd" d="M21.7992 22.2798C22.9297 21.2176 23.8303 19.9347 24.4453 18.5106C25.0604 17.0864 25.3768 15.5513 25.375 14C25.375 7.7175 20.2825 2.625 14 2.625C7.71751 2.625 2.62501 7.7175 2.62501 14C2.62321 15.5513 2.93962 17.0864 3.55467 18.5106C4.16971 19.9347 5.07033 21.2176 6.20084 22.2798C8.30893 24.2712 11.1001 25.3789 14 25.375C16.8999 25.3789 19.6911 24.2712 21.7992 22.2798ZM7.16917 20.7807C7.98826 19.7559 9.02769 18.9289 10.2103 18.3609C11.3928 17.7929 12.6881 17.4987 14 17.5C15.3119 17.4987 16.6072 17.7929 17.7898 18.3609C18.9723 18.9289 20.0117 19.7559 20.8308 20.7807C19.9372 21.6833 18.8732 22.3995 17.7006 22.8878C16.5281 23.3761 15.2702 23.6266 14 23.625C12.7298 23.6266 11.472 23.3761 10.2994 22.8878C9.12678 22.3995 8.06281 21.6833 7.16917 20.7807ZM18.375 10.5C18.375 11.6603 17.9141 12.7731 17.0936 13.5936C16.2731 14.4141 15.1603 14.875 14 14.875C12.8397 14.875 11.7269 14.4141 10.9064 13.5936C10.0859 12.7731 9.62501 11.6603 9.62501 10.5C9.62501 9.33968 10.0859 8.22688 10.9064 7.40641C11.7269 6.58594 12.8397 6.125 14 6.125C15.1603 6.125 16.2731 6.58594 17.0936 7.40641C17.9141 8.22688 18.375 9.33968 18.375 10.5Z" fill="#262626"/>
</svg>
